<svg xmlns="http://www.w3.org/2000/svg" version="1.1" xmlns:xlink="http://www.w3.org/1999/xlink" xmlns:svgjs="http://svgjs.com/svgjs" width="512" height="512" x="0" y="0" viewBox="0 0 480 480" style="enable-background:new 0 0 512 512" xml:space="preserve" class=""><g><path d="M72 320c-35.785 0-72 10.992-72 32v96c0 21.008 36.215 32 72 32s72-10.992 72-32v-96c0-21.008-36.215-32-72-32zm0 16c36.375 0 56 11.36 56 16s-19.625 16-56 16-56-11.36-56-16 19.625-16 56-16zm0 128c-36.375 0-56-11.36-56-16v-11.2A126.879 126.879 0 0 0 72 448a126.879 126.879 0 0 0 56-11.2V448c0 4.64-19.625 16-56 16zm0-32c-36.375 0-56-11.36-56-16v-11.2A126.879 126.879 0 0 0 72 416a126.879 126.879 0 0 0 56-11.2V416c0 4.64-19.625 16-56 16zm0-32c-36.375 0-56-11.36-56-16v-11.2A126.879 126.879 0 0 0 72 384a126.879 126.879 0 0 0 56-11.2V384c0 4.64-19.625 16-56 16zM240 256c-35.785 0-72 10.992-72 32v160c0 21.008 36.215 32 72 32s72-10.992 72-32V288c0-21.008-36.215-32-72-32zm0 16c36.375 0 56 11.36 56 16s-19.625 16-56 16-56-11.36-56-16 19.625-16 56-16zm0 192c-36.375 0-56-11.36-56-16v-11.2a126.879 126.879 0 0 0 56 11.2 126.879 126.879 0 0 0 56-11.2V448c0 4.64-19.625 16-56 16zm0-32c-36.375 0-56-11.36-56-16v-11.2a126.879 126.879 0 0 0 56 11.2 126.879 126.879 0 0 0 56-11.2V416c0 4.64-19.625 16-56 16zm0-32c-36.375 0-56-11.36-56-16v-11.2a126.879 126.879 0 0 0 56 11.2 126.879 126.879 0 0 0 56-11.2V384c0 4.64-19.625 16-56 16zm0-32c-36.375 0-56-11.36-56-16v-11.2a126.879 126.879 0 0 0 56 11.2 126.879 126.879 0 0 0 56-11.2V352c0 4.64-19.625 16-56 16zm0-32c-36.375 0-56-11.36-56-16v-11.2a126.879 126.879 0 0 0 56 11.2 126.879 126.879 0 0 0 56-11.2V320c0 4.64-19.625 16-56 16zM408 160c-35.785 0-72 10.992-72 32v256c0 21.008 36.215 32 72 32s72-10.992 72-32V192c0-21.008-36.215-32-72-32zm0 16c36.375 0 56 11.36 56 16s-19.625 16-56 16-56-11.36-56-16 19.625-16 56-16zm0 288c-36.375 0-56-11.36-56-16v-11.2a126.879 126.879 0 0 0 56 11.2 126.879 126.879 0 0 0 56-11.2V448c0 4.64-19.625 16-56 16zm0-32c-36.375 0-56-11.36-56-16v-11.2a126.879 126.879 0 0 0 56 11.2 126.879 126.879 0 0 0 56-11.2V416c0 4.64-19.625 16-56 16zm0-32c-36.375 0-56-11.36-56-16v-11.2a126.879 126.879 0 0 0 56 11.2 126.879 126.879 0 0 0 56-11.2V384c0 4.64-19.625 16-56 16zm0-32c-36.375 0-56-11.36-56-16v-11.2a126.879 126.879 0 0 0 56 11.2 126.879 126.879 0 0 0 56-11.2V352c0 4.64-19.625 16-56 16zm0-32c-36.375 0-56-11.36-56-16v-11.2a126.879 126.879 0 0 0 56 11.2 126.879 126.879 0 0 0 56-11.2V320c0 4.64-19.625 16-56 16zm0-32c-36.375 0-56-11.36-56-16v-11.2a126.879 126.879 0 0 0 56 11.2 126.879 126.879 0 0 0 56-11.2V288c0 4.64-19.625 16-56 16zm0-32c-36.375 0-56-11.36-56-16v-11.2a126.879 126.879 0 0 0 56 11.2 126.879 126.879 0 0 0 56-11.2V256c0 4.64-19.625 16-56 16zm0-32c-36.375 0-56-11.36-56-16v-11.2a126.879 126.879 0 0 0 56 11.2 126.879 126.879 0 0 0 56-11.2V224c0 4.64-19.625 16-56 16zM392 0v16h60.688l-152 152H132.992L2.727 281.977l10.546 12.046L139.008 184h168.304L464 27.312V88h16V0zm0 0" fill="#38b6ff" data-original="#000000" opacity="1"></path></g></svg>