<svg xmlns="http://www.w3.org/2000/svg" version="1.1" xmlns:xlink="http://www.w3.org/1999/xlink" xmlns:svgjs="http://svgjs.com/svgjs" width="512" height="512" x="0" y="0" viewBox="0 0 64 64" style="enable-background:new 0 0 512 512" xml:space="preserve" class=""><g><path d="M49 62H15a7.008 7.008 0 0 1-7-7V9a7.008 7.008 0 0 1 7-7h34a7.008 7.008 0 0 1 7 7v46a7.008 7.008 0 0 1-7 7ZM15 4a5.006 5.006 0 0 0-5 5v46a5.006 5.006 0 0 0 5 5h34a5.006 5.006 0 0 0 5-5V9a5.006 5.006 0 0 0-5-5Z" fill="#38b6ff" data-original="#000000" opacity="1" class=""></path><path d="M35 58h-6a3 3 0 0 1-3-3v-4a3 3 0 0 1 3-3h6a3 3 0 0 1 3 3v4a3 3 0 0 1-3 3Zm-6-8a1 1 0 0 0-1 1v4a1 1 0 0 0 1 1h6a1 1 0 0 0 1-1v-4a1 1 0 0 0-1-1ZM21 58h-6a3 3 0 0 1-3-3v-4a3 3 0 0 1 3-3h6a3 3 0 0 1 3 3v4a3 3 0 0 1-3 3Zm-6-8a1 1 0 0 0-1 1v4a1 1 0 0 0 1 1h6a1 1 0 0 0 1-1v-4a1 1 0 0 0-1-1ZM49 58h-6a3 3 0 0 1-3-3V39a3 3 0 0 1 3-3h6a3 3 0 0 1 3 3v16a3 3 0 0 1-3 3Zm-6-20a1 1 0 0 0-1 1v16a1 1 0 0 0 1 1h6a1 1 0 0 0 1-1V39a1 1 0 0 0-1-1ZM35 46h-6a3 3 0 0 1-3-3v-4a3 3 0 0 1 3-3h6a3 3 0 0 1 3 3v4a3 3 0 0 1-3 3Zm-6-8a1 1 0 0 0-1 1v4a1 1 0 0 0 1 1h6a1 1 0 0 0 1-1v-4a1 1 0 0 0-1-1ZM21 46h-6a3 3 0 0 1-3-3v-4a3 3 0 0 1 3-3h6a3 3 0 0 1 3 3v4a3 3 0 0 1-3 3Zm-6-8a1 1 0 0 0-1 1v4a1 1 0 0 0 1 1h6a1 1 0 0 0 1-1v-4a1 1 0 0 0-1-1ZM35 34h-6a3 3 0 0 1-3-3v-4a3 3 0 0 1 3-3h6a3 3 0 0 1 3 3v4a3 3 0 0 1-3 3Zm-6-8a1 1 0 0 0-1 1v4a1 1 0 0 0 1 1h6a1 1 0 0 0 1-1v-4a1 1 0 0 0-1-1ZM21 34h-6a3 3 0 0 1-3-3v-4a3 3 0 0 1 3-3h6a3 3 0 0 1 3 3v4a3 3 0 0 1-3 3Zm-6-8a1 1 0 0 0-1 1v4a1 1 0 0 0 1 1h6a1 1 0 0 0 1-1v-4a1 1 0 0 0-1-1ZM49 34h-6a3 3 0 0 1-3-3v-4a3 3 0 0 1 3-3h6a3 3 0 0 1 3 3v4a3 3 0 0 1-3 3Zm-6-8a1 1 0 0 0-1 1v4a1 1 0 0 0 1 1h6a1 1 0 0 0 1-1v-4a1 1 0 0 0-1-1ZM49 20H15a3 3 0 0 1-3-3V9a3 3 0 0 1 3-3h34a3 3 0 0 1 3 3v8a3 3 0 0 1-3 3ZM15 8a1 1 0 0 0-1 1v8a1 1 0 0 0 1 1h34a1 1 0 0 0 1-1V9a1 1 0 0 0-1-1Z" fill="#38b6ff" data-original="#000000" opacity="1" class=""></path><path d="M46 17a3 3 0 0 1-3-3v-2a3 3 0 0 1 6 0v2a3 3 0 0 1-3 3Zm0-6a1 1 0 0 0-1 1v2a1 1 0 0 0 2 0v-2a1 1 0 0 0-1-1Z" fill="#38b6ff" data-original="#000000" opacity="1" class=""></path></g></svg>