<svg xmlns="http://www.w3.org/2000/svg" xmlns:xlink="http://www.w3.org/1999/xlink" width="6912" zoomAndPan="magnify" viewBox="0 0 5184 2592.000001" height="3456" preserveAspectRatio="xMidYMid meet" version="1.0"><defs><clipPath id="9fbbf09b31"><path d="M 22 0 L 3495 0 L 3495 2591 L 22 2591 Z M 22 0 " clip-rule="nonzero"/></clipPath><clipPath id="02867075c0"><path d="M 380.992188 -460.101562 L 3782.441406 113.167969 L 3214.28125 3484.308594 L -187.167969 2911.039062 Z M 380.992188 -460.101562 " clip-rule="nonzero"/></clipPath><clipPath id="f35aafe02f"><path d="M 3782.683594 113.210938 L 381.234375 -460.058594 L -186.925781 2911.078125 L 3214.523438 3484.347656 Z M 3782.683594 113.210938 " clip-rule="nonzero"/></clipPath><clipPath id="d7c8f606d8"><path d="M 2210.835938 0 L 5183 0 L 5183 2591 L 2210.835938 2591 Z M 2210.835938 0 " clip-rule="nonzero"/></clipPath></defs><g clip-path="url(#9fbbf09b31)"><g clip-path="url(#02867075c0)"><g clip-path="url(#f35aafe02f)"><path fill="#ffffff" d="M 3380.226562 546.261719 C 3300.390625 303.273438 3031.15625 244.476562 2799.914062 226.980469 C 2541.484375 207.585938 2421.769531 117.609375 2228.109375 -43.21875 C 2070.941406 -173.734375 1909.222656 -197.632812 1708.621094 -134.125 C 1466.109375 -56.875 1477.136719 156.394531 1274.398438 256.457031 C 1086.25 349.578125 842.210938 252.746094 645.164062 334.972656 C 447.351562 417.742188 366.179688 604.734375 341.980469 808.042969 C 309.378906 1085.101562 407.632812 1366.09375 310.425781 1636.289062 C 232.136719 1853.972656 -40.9375 2044.863281 35.933594 2301.445312 C 179.835938 2781.410156 924.929688 2525.101562 1265.082031 2648.871094 C 1632.953125 2783.355469 2137.511719 3301.285156 2565.929688 2988.921875 C 2755.578125 2851.082031 2712.46875 2573.34375 2749.71875 2372.238281 C 2801.578125 2092.382812 2911.796875 2023.710938 3138.339844 1873.96875 C 3356.496094 1730.199219 3520.65625 1667.929688 3491.039062 1389.78125 C 3473.507812 1223.066406 3262.816406 1151.316406 3240.070312 1039.425781 C 3213.242188 900.003906 3426.09375 684.195312 3380.226562 546.261719 Z M 3380.226562 546.261719 " fill-opacity="1" fill-rule="nonzero"/></g></g></g><g clip-path="url(#d7c8f606d8)"><path fill="#ffffff" d="M 2210.835938 -77.375 L 5299.371094 -77.375 L 5299.371094 2736.949219 L 2210.835938 2736.949219 Z M 2210.835938 -77.375 " fill-opacity="1" fill-rule="nonzero"/></g></svg>