<svg xmlns="http://www.w3.org/2000/svg" xmlns:xlink="http://www.w3.org/1999/xlink" width="6912" zoomAndPan="magnify" viewBox="0 0 5184 2592.000001" height="3456" preserveAspectRatio="xMidYMid meet" version="1.0"><defs><clipPath id="c623b6371e"><path d="M 1385 0 L 4619 0 L 4619 2591 L 1385 2591 Z M 1385 0 " clip-rule="nonzero"/></clipPath><clipPath id="759b33af7e"><path d="M 1574.324219 -477.84375 L 4975.808594 95.429688 L 4407.730469 3466.078125 L 1006.246094 2892.804688 Z M 1574.324219 -477.84375 " clip-rule="nonzero"/></clipPath><clipPath id="d864bc0fb7"><path d="M 1574.324219 -477.84375 L 4975.808594 95.429688 L 4407.730469 3466.078125 L 1006.246094 2892.804688 Z M 1574.324219 -477.84375 " clip-rule="nonzero"/></clipPath><clipPath id="bc63715fa1"><path d="M 1 0 L 1914.851562 0 L 1914.851562 2591 L 1 2591 Z M 1 0 " clip-rule="nonzero"/></clipPath></defs><g clip-path="url(#c623b6371e)"><g clip-path="url(#759b33af7e)"><g clip-path="url(#d864bc0fb7)"><path fill="#ffffff" d="M 1812.628906 63.128906 C 1967.6875 -140.238281 2241.328125 -107.539062 2465.53125 -48.28125 C 2716.046875 18.097656 2858.636719 -27.660156 3094.316406 -116.109375 C 3285.578125 -187.886719 3446.195312 -157.460938 3614.90625 -31.726562 C 3818.707031 120.726562 3738.390625 318.570312 3897.140625 479.535156 C 4044.378906 629.167969 4306.675781 617.675781 4465.890625 759.929688 C 4625.652344 902.949219 4641.054688 1106.1875 4597.285156 1306.167969 C 4537.285156 1578.566406 4352.363281 1811.796875 4355.648438 2098.886719 C 4358.269531 2330.171875 4553.699219 2599.988281 4396.980469 2817.167969 C 4103.722656 3223.386719 3483.78125 2737.074219 3121.847656 2742.511719 C 2730.214844 2748.980469 2083.777344 3072.859375 1781.390625 2637.382812 C 1647.394531 2445.023438 1779.148438 2196.796875 1809.867188 1994.617188 C 1852.589844 1713.265625 1770.96875 1612.273438 1606.007812 1396.578125 C 1447.019531 1189.269531 1312.332031 1076.648438 1431.476562 823.613281 C 1502.679688 671.875 1725.25 673.148438 1783.410156 574.914062 C 1854.453125 452.003906 1724.085938 178.390625 1812.628906 63.128906 Z M 1812.628906 63.128906 " fill-opacity="1" fill-rule="nonzero"/></g></g></g><g clip-path="url(#bc63715fa1)"><path fill="#ffffff" d="M -765.835938 -85.316406 L 1914.867188 -85.316406 L 1914.867188 2729.007812 L -765.835938 2729.007812 Z M -765.835938 -85.316406 " fill-opacity="1" fill-rule="nonzero"/></g></svg>