<svg xmlns="http://www.w3.org/2000/svg" version="1.1" xmlns:xlink="http://www.w3.org/1999/xlink" xmlns:svgjs="http://svgjs.com/svgjs" width="512" height="512" x="0" y="0" viewBox="0 0 502.2 502.2" style="enable-background:new 0 0 512 512" xml:space="preserve" class=""><g><path d="M501.5 268.15c-1.8-13-15.2-23.4-40.3-31-20.3-6.1-46-9.8-74-10.4v-106.7c0-2.2-.7-4.3-2.1-6-3.3-11.6-16.7-21-39.9-28-22.5-6.8-51.9-10.5-82.8-10.5-30.8 0-59.9 3.7-81.9 10.5-18.1 5.6-39.8 16-39.8 33.9 0 1.1.1 2.2.3 3.3l1.1 45.6c-64.9-12.5-127.6 30.2-140 95.2-1.4 7.3-2.1 14.8-2.1 22.3 0 66 53.7 119.7 119.7 119.7 27.5 0 54.1-9.5 75.5-26.8 18.8 4.4 40.8 6.8 64.1 7 5.1 27.7 65.1 40.4 121.1 40.4 30.8 0 59.8-3.8 82-10.7 18.2-5.6 39.8-16.1 39.8-34v-109.9c0-1.3-.2-2.7-.7-3.9zm-315-163c20.2-6.2 47.2-9.7 76-9.7 28.6 0 56.6 3.5 77 9.7 21.7 6.6 26.4 13.4 26.4 14.8 0 1.4-4.7 8.3-26.5 14.8-20.3 6.1-48.3 9.7-76.9 9.7-27.6 0-53.8-3.2-73.7-9-21.5-6.2-27.5-13.1-28-15.3 0-.2 0-.3-.1-.3.1-1.4 4.7-8.2 25.8-14.7zm180.7 39.8v25.6c-.9 1.4-1.4 3.1-1.3 4.8 0 1.3-4.7 8.2-26.5 14.8-20.3 6.1-48.4 9.7-77 9.7-24.7 0-48.9-2.6-68.1-7.5-.3-.1-.5-.1-.8-.2-9.5-7.5-20-13.4-31.3-17.7l-.7-28.2c6.9 3.5 14.1 6.3 21.6 8.3 21.7 6.3 49.8 9.7 79.3 9.7 30.9 0 60.3-3.7 82.7-10.5 7.7-2.1 15.1-5.1 22.1-8.8zm-180.4 215.1c-40.7 37.1-103.8 34.1-140.8-6.6s-34.1-103.8 6.6-140.8c18.4-16.7 42.3-26 67.1-26 10 0 20 1.5 29.6 4.4 34.6 10.9 60.7 39.6 68.2 75.1 1.3 6.6 2 13.4 2 20.1 0 28.2-11.9 55-32.7 73.8zm25.4 2.2c8.1-9.9 14.6-21 19.2-32.9 8.5.7 17.5 1.2 26.7 1.3v1.8l.5 33.9c-15.5-.2-31-1.6-46.4-4.1zm26.6-87.8c5.9.4 12 .6 18.2.7 0 .2.1.5.1.7l.6 34.7c-7.1-.1-14-.4-20.7-.9 1.5-7.7 2.3-15.6 2.3-23.4.1-3.9-.1-7.8-.5-11.8zm24.6-19.2h-.9c-9.6 0-18.9-.4-27.5-1-3.8-13.4-9.8-26-17.9-37.2 15 1.9 30.1 2.9 45.3 2.9 30.9 0 60.3-3.7 82.8-10.5 7.7-2.4 15-5.3 22-9v26.5c-43 1.2-87.4 10.2-103.8 28.3zm13.4 15.4c1-2.8 8.3-9.3 28.8-15.1 19.5-5.5 44.9-8.5 71.6-8.5h1.3c28.6 0 56.6 3.3 77 9.5 21.1 6.4 26.1 12.8 26.4 14.5v.1c-.1 1.5-5.1 8.4-27.3 15-20.5 6.1-47.5 9.4-76.1 9.4-27 0-52.8-3.1-72.6-8.6-19.1-5.4-26.8-11.5-28.7-14.6-.1-.6-.2-1.2-.4-1.7zm205.4 111.3c0 1.4-4.5 8.3-25.7 14.9-20.3 6.3-47.3 9.8-76.1 9.8-28.9 0-55.9-3.4-75.9-9.5-21.2-6.5-25.5-13.2-25.5-14.7v-.2l-.5-28.9c23.8 12.1 63.5 17.6 99.9 17.6 30.9 0 60.1-3.7 82.5-10.5 7.4-2.2 14.5-5.2 21.3-8.8v30.3zm-.9-55.4c0 1.4-4.6 8.2-26.2 14.8-20.5 6.2-47.7 9.6-76.7 9.6-54.9 0-92.1-12.3-100.3-22l-.2-8.6-.4-22.9c7.3 3.7 14.9 6.6 22.8 8.7 21.5 6 49.2 9.4 78 9.4 30.4 0 59.4-3.6 81.7-10.2 7.7-2.2 15.1-5.1 22.1-8.8v25.7h.1c0 1.3-.9 2.8-.9 4.3z" fill="#38b6ff" data-original="#000000" opacity="1"></path><path d="M169.6 339.75c-2-5.2-7.7-7.7-12.9-5.8v-.1c-18.9 7.2-40.2 2.6-54.4-11.7-2.9-2.6-5.3-5.7-7.1-9.1h51.4c5.5 0 10-4.5 10-10s-4.5-10-10-10H87.9c-.6-3.6-.7-7.3-.3-11h64.2c5.5 0 10-4.5 10-10s-4.5-10-10-10H93.5c2.4-4.3 5.3-8.2 8.7-11.8 14.3-14.2 35.6-18.8 54.4-11.5 5.2 2 10.9-.6 12.9-5.7 2-5.2-.6-10.9-5.7-12.9-26.2-10.1-55.9-3.8-75.8 16.1-7.4 7.3-13 16.1-16.5 25.9H57.3c-5.5 0-10 4.5-10 10s4.5 10 10 10h10c-.2 3.7-.2 7.3.2 11H57.3c-5.5 0-10 4.5-10 10s4.5 10 10 10h15.3c3.4 8.7 8.7 16.7 15.4 23.3 19.8 19.9 49.5 26.3 75.8 16.2 5.2-2 7.7-7.7 5.8-12.9z" fill="#38b6ff" data-original="#000000" opacity="1"></path></g></svg>