<svg xmlns="http://www.w3.org/2000/svg" xmlns:xlink="http://www.w3.org/1999/xlink" width="250" zoomAndPan="magnify" viewBox="0 0 187.5 112.499997" height="150" preserveAspectRatio="xMidYMid meet" version="1.0"><defs><clipPath id="00396135bc"><path d="M 0.667969 15.0625 L 97.96875 15.0625 L 97.96875 98.019531 L 0.667969 98.019531 Z M 0.667969 15.0625 " clip-rule="nonzero"/></clipPath></defs><g clip-path="url(#00396135bc)"><path fill="#38b6ff" d="M 28.308594 75.734375 L 28.308594 57.566406 L 40.867188 48.65625 L 40.867188 94.167969 L 41.953125 94.9375 L 43.039062 94.167969 L 43.039062 29.71875 L 49.320312 25.269531 L 55.601562 29.71875 L 55.601562 83.25 L 56.683594 84.015625 L 57.773438 83.25 L 57.773438 15.0625 L 70.332031 23.96875 L 70.332031 75.734375 L 97.972656 77.351562 L 67.820312 77.351562 L 67.820312 25.269531 L 60.285156 19.925781 L 60.285156 84.546875 L 58.859375 85.558594 L 56.683594 87.097656 L 54.511719 85.558594 L 53.089844 84.546875 L 53.089844 31.019531 L 49.320312 28.347656 L 45.554688 31.019531 L 45.554688 95.464844 L 44.125 96.480469 L 41.953125 98.023438 L 39.78125 96.480469 L 38.359375 95.464844 L 38.359375 53.519531 L 30.824219 58.863281 L 30.824219 77.351562 L 0.667969 77.351562 L 28.308594 75.734375 " fill-opacity="1" fill-rule="nonzero"/></g><path fill="#292929" d="M 90.722656 48.574219 L 94.507812 48.574219 L 88.722656 32.097656 L 82.980469 32.097656 L 77.1875 48.574219 L 80.976562 48.574219 L 82.164062 45.203125 L 89.535156 45.203125 Z M 83.175781 42.308594 L 85.847656 34.699219 L 88.523438 42.308594 Z M 83.175781 42.308594 " fill-opacity="1" fill-rule="nonzero"/><path fill="#292929" d="M 95.871094 44.535156 C 95.945312 46.890625 97.601562 48.972656 102.003906 48.972656 C 106.265625 48.972656 107.796875 47.285156 107.796875 44.859375 C 107.796875 42.652344 106.683594 41.390625 103.738281 41.019531 L 101.140625 40.71875 C 99.902344 40.570312 99.582031 40.078125 99.582031 39.457031 C 99.582031 38.664062 100.226562 38.070312 101.808594 38.070312 C 103.34375 38.070312 104.109375 38.789062 104.230469 39.800781 L 107.621094 39.800781 C 107.402344 37.078125 105.148438 35.761719 101.808594 35.761719 C 98.519531 35.761719 96.191406 37.050781 96.191406 39.800781 C 96.191406 41.882812 97.453125 43.121094 99.78125 43.421875 L 102.550781 43.765625 C 103.9375 43.941406 104.28125 44.484375 104.28125 45.230469 C 104.28125 46.097656 103.710938 46.667969 102.054688 46.667969 C 100.199219 46.667969 99.308594 45.726562 99.210938 44.535156 Z M 95.871094 44.535156 " fill-opacity="1" fill-rule="nonzero"/><path fill="#292929" d="M 116.183594 46.441406 C 114.425781 46.441406 113.265625 45.679688 113.039062 43.320312 L 122.46875 43.320312 C 122.519531 43.050781 122.519531 42.703125 122.519531 42.332031 C 122.519531 38.839844 120.785156 35.789062 116.109375 35.789062 C 111.53125 35.789062 109.453125 38.761719 109.453125 42.359375 C 109.453125 45.847656 111.285156 48.972656 116.109375 48.972656 C 120.566406 48.972656 122.148438 46.816406 122.492188 44.835938 L 118.976562 44.835938 C 118.632812 45.753906 117.792969 46.441406 116.183594 46.441406 Z M 116.160156 38.269531 C 117.988281 38.269531 118.90625 39.207031 119.027344 41.089844 L 113.066406 41.089844 C 113.363281 38.988281 114.402344 38.269531 116.160156 38.269531 Z M 116.160156 38.269531 " fill-opacity="1" fill-rule="nonzero"/><path fill="#292929" d="M 124.027344 44.535156 C 124.097656 46.890625 125.753906 48.972656 130.160156 48.972656 C 134.417969 48.972656 135.953125 47.285156 135.953125 44.859375 C 135.953125 42.652344 134.839844 41.390625 131.894531 41.019531 L 129.296875 40.71875 C 128.058594 40.570312 127.738281 40.078125 127.738281 39.457031 C 127.738281 38.664062 128.382812 38.070312 129.964844 38.070312 C 131.5 38.070312 132.261719 38.789062 132.386719 39.800781 L 135.777344 39.800781 C 135.554688 37.078125 133.304688 35.761719 129.964844 35.761719 C 126.675781 35.761719 124.347656 37.050781 124.347656 39.800781 C 124.347656 41.882812 125.609375 43.121094 127.933594 43.421875 L 130.707031 43.765625 C 132.09375 43.941406 132.4375 44.484375 132.4375 45.230469 C 132.4375 46.097656 131.867188 46.667969 130.210938 46.667969 C 128.355469 46.667969 127.464844 45.726562 127.363281 44.535156 Z M 124.027344 44.535156 " fill-opacity="1" fill-rule="nonzero"/><path fill="#292929" d="M 144.460938 48.972656 C 149.410156 48.972656 151.320312 45.796875 151.320312 42.359375 C 151.320312 38.964844 149.410156 35.789062 144.460938 35.789062 C 139.539062 35.789062 137.609375 38.9375 137.609375 42.359375 C 137.609375 45.824219 139.539062 48.972656 144.460938 48.972656 Z M 141.296875 42.382812 C 141.296875 39.632812 142.234375 38.664062 144.460938 38.664062 C 146.714844 38.664062 147.652344 39.632812 147.652344 42.382812 C 147.652344 45.128906 146.714844 46.097656 144.460938 46.097656 C 142.234375 46.097656 141.296875 45.128906 141.296875 42.382812 Z M 141.296875 42.382812 " fill-opacity="1" fill-rule="nonzero"/><path fill="#292929" d="M 161.015625 35.988281 C 158.9375 35.988281 157.824219 37.078125 157.230469 38.839844 L 157.230469 36.1875 L 153.664062 36.1875 L 153.664062 48.574219 L 157.328125 48.574219 L 157.328125 43.695312 C 157.328125 40.894531 158.167969 39.558594 160.621094 39.558594 L 161.828125 39.558594 L 161.828125 35.988281 Z M 161.015625 35.988281 " fill-opacity="1" fill-rule="nonzero"/><path fill="#292929" d="M 169.15625 34.003906 L 168.4375 31.675781 L 162.152344 33.832031 L 162.472656 34.800781 Z M 163.835938 48.574219 L 167.496094 48.574219 L 167.496094 36.1875 L 163.835938 36.1875 Z M 163.835938 48.574219 " fill-opacity="1" fill-rule="nonzero"/><path fill="#292929" d="M 174.105469 48.898438 C 176.628906 48.898438 178.109375 47.636719 178.679688 45.921875 C 178.679688 46.941406 178.753906 47.757812 178.878906 48.574219 L 182.070312 48.574219 C 181.945312 47.511719 181.871094 46.515625 181.871094 45.355469 L 181.871094 40 C 181.871094 37.375 180.042969 35.761719 176.28125 35.761719 C 172.519531 35.761719 170.34375 37.574219 170.246094 40.226562 L 173.832031 40.226562 C 173.878906 38.964844 174.675781 38.292969 176.351562 38.292969 C 178.011719 38.292969 178.503906 38.863281 178.503906 39.726562 C 178.503906 40.445312 178.109375 40.769531 176.972656 40.96875 L 174.054688 41.464844 C 170.863281 42.007812 169.996094 43.296875 169.996094 45.277344 C 169.996094 47.511719 171.601562 48.898438 174.105469 48.898438 Z M 175.339844 46.398438 C 174.351562 46.398438 173.609375 45.898438 173.609375 44.910156 C 173.609375 43.964844 174.128906 43.496094 175.4375 43.171875 L 176.476562 42.925781 C 177.246094 42.753906 177.867188 42.578125 178.503906 42.132812 L 178.503906 42.679688 C 178.503906 44.984375 177.269531 46.398438 175.339844 46.398438 Z M 175.339844 46.398438 " fill-opacity="1" fill-rule="nonzero"/><path fill="#292929" d="M 90.722656 58.070312 L 90.722656 55.09375 L 77.882812 55.09375 L 77.882812 71.574219 L 81.644531 71.574219 L 81.644531 64.859375 L 89.882812 64.859375 L 89.882812 62.058594 L 81.644531 62.058594 L 81.644531 58.070312 Z M 90.722656 58.070312 " fill-opacity="1" fill-rule="nonzero"/><path fill="#292929" d="M 93.023438 57.550781 L 97.007812 57.550781 L 97.007812 55.09375 L 93.023438 55.09375 Z M 93.199219 71.574219 L 96.859375 71.574219 L 96.859375 59.183594 L 93.199219 59.183594 Z M 93.199219 71.574219 " fill-opacity="1" fill-rule="nonzero"/><path fill="#292929" d="M 98.914062 67.535156 C 98.988281 69.886719 100.644531 71.96875 105.050781 71.96875 C 109.308594 71.96875 110.839844 70.285156 110.839844 67.855469 C 110.839844 65.652344 109.726562 64.386719 106.78125 64.015625 L 104.183594 63.714844 C 102.945312 63.570312 102.625 63.074219 102.625 62.453125 C 102.625 61.660156 103.269531 61.066406 104.851562 61.066406 C 106.386719 61.066406 107.152344 61.785156 107.273438 62.800781 L 110.664062 62.800781 C 110.445312 60.078125 108.191406 58.761719 104.851562 58.761719 C 101.5625 58.761719 99.234375 60.050781 99.234375 62.800781 C 99.234375 64.882812 100.496094 66.121094 102.824219 66.417969 L 105.597656 66.765625 C 106.980469 66.941406 107.324219 67.484375 107.324219 68.230469 C 107.324219 69.09375 106.753906 69.667969 105.097656 69.667969 C 103.242188 69.667969 102.351562 68.722656 102.253906 67.535156 Z M 98.914062 67.535156 " fill-opacity="1" fill-rule="nonzero"/><path fill="#292929" d="M 112.496094 65.378906 C 112.496094 68.847656 114.523438 71.96875 119.347656 71.96875 C 123.703125 71.96875 125.761719 69.367188 125.832031 66.46875 L 122.269531 66.46875 C 122.121094 67.957031 121.257812 69.09375 119.300781 69.09375 C 117.320312 69.09375 116.183594 68.179688 116.183594 65.378906 C 116.183594 62.601562 117.371094 61.660156 119.347656 61.660156 C 121.230469 61.660156 122.070312 62.679688 122.195312 64.214844 L 125.761719 64.214844 C 125.660156 61.164062 123.558594 58.789062 119.277344 58.789062 C 114.472656 58.789062 112.496094 61.910156 112.496094 65.378906 Z M 112.496094 65.378906 " fill-opacity="1" fill-rule="nonzero"/><path fill="#292929" d="M 131.84375 71.894531 C 134.371094 71.894531 135.851562 70.632812 136.421875 68.921875 C 136.421875 69.9375 136.496094 70.753906 136.621094 71.574219 L 139.8125 71.574219 C 139.6875 70.507812 139.613281 69.515625 139.613281 68.355469 L 139.613281 62.996094 C 139.613281 60.371094 137.785156 58.761719 134.019531 58.761719 C 130.257812 58.761719 128.082031 60.570312 127.988281 63.222656 L 131.574219 63.222656 C 131.621094 61.960938 132.414062 61.289062 134.09375 61.289062 C 135.753906 61.289062 136.246094 61.859375 136.246094 62.726562 C 136.246094 63.445312 135.851562 63.765625 134.714844 63.964844 L 131.796875 64.460938 C 128.601562 65.003906 127.738281 66.296875 127.738281 68.277344 C 127.738281 70.507812 129.34375 71.894531 131.84375 71.894531 Z M 133.082031 69.394531 C 132.09375 69.394531 131.347656 68.898438 131.347656 67.90625 C 131.347656 66.964844 131.867188 66.492188 133.179688 66.171875 L 134.21875 65.921875 C 134.988281 65.75 135.609375 65.578125 136.246094 65.128906 L 136.246094 65.675781 C 136.246094 67.980469 135.011719 69.394531 133.082031 69.394531 Z M 133.082031 69.394531 " fill-opacity="1" fill-rule="nonzero"/><path fill="#292929" d="M 142.410156 71.574219 L 146.070312 71.574219 L 146.070312 54.226562 L 142.410156 54.226562 Z M 142.410156 71.574219 " fill-opacity="1" fill-rule="nonzero"/></svg>